<svg xmlns="http://www.w3.org/2000/svg" width="612" height="612" viewBox="0 0 612 612" version="1.1"><path d="M 176.390 127.073 C 150.973 130.097, 127.199 148.601, 117.327 173.042 C 111.867 186.560, 111.927 184.943, 112.241 310.041 C 112.527 424.091, 112.557 425.579, 114.625 432.007 C 121.962 454.800, 137.678 472.197, 158.365 480.425 C 172.990 486.242, 168.926 486.081, 293.821 485.778 L 408.500 485.500 415.500 483.151 C 441.222 474.521, 458.967 456.426, 466.197 431.455 L 468.500 423.500 468.500 305.500 C 468.500 225.605, 468.163 186.754, 467.455 185.189 C 466.469 183.006, 465.908 183.505, 457.357 194.189 C 452.378 200.410, 445.773 208.899, 442.679 213.052 L 437.055 220.605 436.778 322.105 L 436.500 423.605 432.734 431.224 C 426.868 443.093, 417.122 450.701, 404.789 453.040 C 397.238 454.472, 182.593 454.317, 175.799 452.875 C 161.123 449.758, 149.681 439.179, 145.568 424.924 C 144.124 419.918, 143.987 407.539, 144.230 303.924 L 144.500 188.500 147.709 181.725 C 151.564 173.586, 158.335 166.693, 166.592 162.500 L 172.500 159.500 278.912 159.228 L 385.324 158.956 389.412 155.201 C 394.807 150.247, 408.024 140.237, 415.400 135.520 C 422.107 131.231, 422.021 131.056, 411.867 128.309 C 406.041 126.733, 396.063 126.571, 294.500 126.406 C 233.450 126.307, 180.301 126.607, 176.390 127.073 M 472.532 127.113 C 431.255 133.126, 385.955 167.359, 351.612 218.493 C 329.889 250.837, 314.496 291.617, 316.151 312.436 C 316.351 314.946, 316.286 316.985, 316.007 316.966 C 315.728 316.947, 303.680 299.685, 289.233 278.606 C 274.787 257.527, 262.028 239.431, 260.881 238.393 C 256.888 234.778, 235.323 236.963, 222.043 242.327 C 208.856 247.653, 195.848 257.861, 194.515 263.930 C 193.580 268.188, 194.836 270.315, 209.700 289.652 C 241.272 330.725, 261.832 361.240, 274.429 385.723 C 279.981 396.513, 283.886 400.329, 291.698 402.600 C 300.058 405.031, 303.844 403.756, 325.588 391.186 L 344.475 380.268 349.106 365.884 C 368.829 304.623, 402.927 242.274, 446.389 188 C 456.677 175.152, 478.363 150.970, 489.419 140.018 C 495.239 134.253, 500 129.013, 500 128.375 C 500 127.736, 499.288 126.941, 498.418 126.607 C 496.189 125.752, 479.660 126.075, 472.532 127.113" stroke="none" fill="#740e73" fill-rule="evenodd"/><path d="M -0 306.002 L -0 612.003 306.250 611.752 L 612.500 611.500 612.752 305.750 L 613.003 -0 306.502 -0 L 0 0 -0 306.002 M 0.494 306.500 C 0.494 474.800, 0.609 543.501, 0.750 459.169 C 0.891 374.837, 0.891 237.137, 0.750 153.169 C 0.609 69.201, 0.494 138.200, 0.494 306.500 M 176.390 127.073 C 150.973 130.097, 127.199 148.601, 117.327 173.042 C 111.867 186.560, 111.927 184.943, 112.241 310.041 C 112.527 424.091, 112.557 425.579, 114.625 432.007 C 121.962 454.800, 137.678 472.197, 158.365 480.425 C 172.990 486.242, 168.926 486.081, 293.821 485.778 L 408.500 485.500 415.500 483.151 C 441.222 474.521, 458.967 456.426, 466.197 431.455 L 468.500 423.500 468.500 305.500 C 468.500 225.605, 468.163 186.754, 467.455 185.189 C 466.469 183.006, 465.908 183.505, 457.357 194.189 C 452.378 200.410, 445.773 208.899, 442.679 213.052 L 437.055 220.605 436.778 322.105 L 436.500 423.605 432.734 431.224 C 426.868 443.093, 417.122 450.701, 404.789 453.040 C 397.238 454.472, 182.593 454.317, 175.799 452.875 C 161.123 449.758, 149.681 439.179, 145.568 424.924 C 144.124 419.918, 143.987 407.539, 144.230 303.924 L 144.500 188.500 147.709 181.725 C 151.564 173.586, 158.335 166.693, 166.592 162.500 L 172.500 159.500 278.912 159.228 L 385.324 158.956 389.412 155.201 C 394.807 150.247, 408.024 140.237, 415.400 135.520 C 422.107 131.231, 422.021 131.056, 411.867 128.309 C 406.041 126.733, 396.063 126.571, 294.500 126.406 C 233.450 126.307, 180.301 126.607, 176.390 127.073 M 472.532 127.113 C 431.255 133.126, 385.955 167.359, 351.612 218.493 C 329.889 250.837, 314.496 291.617, 316.151 312.436 C 316.351 314.946, 316.286 316.985, 316.007 316.966 C 315.728 316.947, 303.680 299.685, 289.233 278.606 C 274.787 257.527, 262.028 239.431, 260.881 238.393 C 256.888 234.778, 235.323 236.963, 222.043 242.327 C 208.856 247.653, 195.848 257.861, 194.515 263.930 C 193.580 268.188, 194.836 270.315, 209.700 289.652 C 241.272 330.725, 261.832 361.240, 274.429 385.723 C 279.981 396.513, 283.886 400.329, 291.698 402.600 C 300.058 405.031, 303.844 403.756, 325.588 391.186 L 344.475 380.268 349.106 365.884 C 368.829 304.623, 402.927 242.274, 446.389 188 C 456.677 175.152, 478.363 150.970, 489.419 140.018 C 495.239 134.253, 500 129.013, 500 128.375 C 500 127.736, 499.288 126.941, 498.418 126.607 C 496.189 125.752, 479.660 126.075, 472.532 127.113" stroke="none" fill="#fbfbfb" fill-rule="evenodd"/></svg>